<?xml version="1.0" encoding="UTF-8" ?>
<!DOCTYPE svg PUBLIC "-//W3C//DTD SVG 1.1//EN" "http://www.w3.org/Graphics/SVG/1.1/DTD/svg11.dtd">
<svg width="800pt" height="800pt" viewBox="0 0 800 800" version="1.1" xmlns="http://www.w3.org/2000/svg">
<g id="#ffffffff">
</g>
<g id="#000000ff">
<path fill="#000000" opacity="1.00" d=" M 264.08 211.15 C 305.67 181.73 357.18 166.84 408.03 168.98 C 454.24 170.77 499.81 186.54 537.16 213.84 C 564.69 233.92 587.67 260.14 604.17 289.95 C 623.86 325.57 634.22 366.34 633.61 407.05 C 633.50 427.73 630.18 448.28 624.85 468.22 C 624.93 469.76 623.45 470.33 622.63 471.32 C 622.50 472.85 622.98 474.41 622.40 475.91 C 618.97 486.54 614.72 496.91 609.87 506.98 C 583.10 555.19 531.76 588.66 476.86 593.81 C 425.25 599.24 371.62 579.83 335.76 542.26 C 344.73 555.96 356.73 567.53 369.85 577.25 C 401.99 600.94 443.70 611.10 483.14 604.83 C 503.11 601.64 522.62 594.66 539.69 583.76 C 540.25 583.69 541.35 583.54 541.90 583.47 C 541.05 583.91 540.16 584.29 539.38 584.86 C 511.16 611.46 474.39 628.76 435.98 633.93 C 389.68 640.37 341.24 628.75 302.76 602.25 C 288.07 592.11 274.63 580.04 263.48 566.08 C 263.77 577.51 265.92 588.77 267.70 600.03 C 259.96 593.21 252.75 585.79 246.19 577.83 C 220.39 546.81 204.66 507.30 202.98 466.93 C 202.84 466.37 202.69 465.82 202.53 465.28 C 200.97 482.85 200.77 500.63 203.14 518.16 C 203.79 525.47 205.46 532.64 206.51 539.90 C 191.17 523.29 179.49 503.25 173.22 481.49 C 168.20 464.84 166.65 447.35 167.25 430.02 C 168.01 399.46 176.75 369.24 191.74 342.64 C 205.27 318.64 224.22 297.76 246.56 281.65 C 284.66 254.08 333.24 241.49 379.92 247.22 C 395.21 249.01 410.30 252.63 424.69 258.09 C 404.35 258.74 384.14 264.84 367.23 276.25 C 352.93 285.76 341.04 298.83 332.78 313.87 C 330.61 318.08 328.61 322.36 326.85 326.75 C 317.76 350.28 317.69 376.88 325.90 400.67 C 326.17 400.54 326.69 400.30 326.95 400.17 C 338.47 382.59 352.99 367.09 368.99 353.51 C 359.17 355.21 350.05 359.43 341.16 363.79 C 364.48 344.29 391.92 329.70 421.27 321.72 C 404.43 320.94 387.44 322.22 370.95 325.79 C 405.18 311.15 443.57 307.43 480.31 312.34 C 462.13 305.26 442.81 301.63 423.41 300.08 C 435.56 297.93 448.00 298.52 460.07 300.86 C 455.68 299.14 452.29 295.78 449.58 292.03 C 454.14 293.87 458.49 296.22 463.16 297.80 C 467.33 299.33 471.50 300.95 475.87 301.91 C 485.09 303.77 494.28 306.09 502.97 309.75 C 485.97 296.44 465.99 287.01 444.92 282.30 C 444.27 281.91 442.47 282.18 442.40 281.41 C 457.65 282.80 473.03 284.82 487.63 289.78 C 484.47 285.34 482.74 279.88 483.41 274.41 C 484.42 276.92 486.04 279.11 487.88 281.08 C 494.71 289.20 503.26 295.91 512.85 300.46 C 522.42 305.45 531.41 311.51 539.76 318.34 C 543.08 320.96 546.17 323.89 548.87 327.16 C 552.19 331.28 552.81 336.83 555.79 341.15 C 557.64 344.00 561.44 343.43 564.23 344.67 C 567.94 347.01 569.06 352.25 573.42 353.73 C 577.33 354.94 581.63 356.32 584.09 359.83 C 584.57 363.66 583.60 367.94 580.72 370.66 C 578.01 373.44 574.57 375.36 571.03 376.88 C 560.93 368.04 545.15 366.73 533.78 373.92 C 532.19 375.20 530.84 373.21 529.61 372.45 C 508.14 355.36 476.69 352.95 452.52 365.69 C 448.39 367.35 446.34 371.52 443.78 374.86 C 441.28 378.18 439.76 382.11 437.24 385.42 C 434.18 394.03 430.38 402.67 430.15 411.97 C 430.19 416.64 428.96 421.23 429.46 425.92 C 429.58 429.61 430.35 433.25 430.54 436.94 C 425.97 428.96 422.34 420.28 421.53 411.04 C 420.98 406.34 421.34 401.63 421.41 396.92 C 417.46 405.95 414.05 415.47 413.62 425.38 C 412.54 428.38 412.62 431.84 413.66 434.85 C 413.68 435.42 413.74 436.55 413.76 437.11 C 415.43 447.76 418.54 458.40 424.61 467.42 C 435.37 482.72 450.60 494.78 467.86 501.92 C 485.80 509.40 505.98 511.53 525.05 507.65 C 545.24 503.65 564.20 493.30 578.22 478.19 C 593.03 462.70 602.40 442.20 604.76 420.93 C 605.64 414.67 605.40 408.34 605.43 402.04 C 605.45 360.27 592.54 318.57 568.74 284.22 C 545.97 251.25 513.57 224.96 476.47 209.77 C 441.91 195.51 403.40 190.80 366.46 196.59 C 368.06 198.77 370.60 199.89 372.74 201.44 C 379.21 206.03 385.00 211.57 389.91 217.80 C 373.23 213.28 356.24 209.59 338.96 208.35 C 312.64 205.93 286.05 208.08 260.22 213.48 C 261.54 212.76 262.84 212.01 264.08 211.15 Z" />
</g>
</svg>
